<svg xmlns="http://www.w3.org/2000/svg" fill-rule="evenodd" viewBox="0 0 595.276 841.89">
  <defs>
    <linearGradient id="a" y2="716.71" gradientUnits="userSpaceOnUse" x2="316.35" y1="531.05"
      x1="317.49">
      <stop style="stop-color:#fca" offset="0" />
      <stop style="stop-color:#fca;stop-opacity:0" offset="1" />
    </linearGradient>
  </defs>
  <path
    d="M222.13 664.1h193.5v-35.852l.028-2.697.086-2.695.143-2.694.2-2.689.259-2.685.314-2.679.372-2.671.428-2.663.485-2.653.542-2.642.597-2.63.652-2.617.708-2.602.764-2.587.819-2.57.873-2.552.927-2.532.981-2.513 1.033-2.491 1.087-2.468 1.139-2.445 1.192-2.42 1.241-2.394 1.292-2.367 1.342-2.339 1.392-2.31 1.442-2.28 1.489-2.249 1.535-2.217 1.667-2.403 1.617-2.436 1.566-2.469 1.516-2.501 1.463-2.532 1.412-2.561 1.358-2.589 1.305-2.617 1.251-2.644 1.196-2.668 1.142-2.692 1.084-2.716 1.031-2.737.972-2.757.917-2.777.858-2.795.802-2.813.742-2.828.686-2.843.625-2.856.569-2.869.508-2.879.449-2.89.39-2.898.33-2.905.269-2.912.21-2.917.15-2.92.091-2.923.03-2.924v-166.84l-.029-1.427-.086-1.424-.144-1.42-.2-1.413-.257-1.403-.313-1.392-.371-1.379-.424-1.362-.478-1.345-.534-1.323-.586-1.302-.637-1.276-.689-1.25-.737-1.222-.788-1.19-.834-1.158-.879-1.123-.925-1.087-.968-1.049-1.008-1.009-1.05-.968-1.087-.924-1.124-.88-1.157-.835-1.191-.786-1.22-.739-1.25-.688-1.277-.638-1.302-.585-1.324-.533-1.344-.479-1.362-.425-1.379-.369-1.391-.314-1.404-.257-1.414-.2-1.419-.144-1.425-.086-1.427-.029-1.426.029-1.425.086-1.419.144-1.412.2-1.405.257-1.392.314-1.379.369-1.362.425-1.343.479-1.325.533-1.302.585-1.276.638-1.249.688-1.222.739-1.19.786-1.158.835-1.123.88-1.088.924-1.048.968-1.01 1.009-.968 1.049-.924 1.087-.88 1.123-.835 1.158-.785 1.19-.74 1.222-.688 1.25-.637 1.276-.586 1.302-.532 1.323-.479 1.345-.426 1.362-.368 1.379-.315 1.392-.257 1.403-.199 1.413-.144 1.42-.087 1.424-.029 1.427v-30.3l-.028-1.431-.087-1.43-.144-1.425-.201-1.418-.258-1.409-.315-1.397-.371-1.383-.426-1.368-.481-1.349-.533-1.329-.589-1.306-.64-1.281-.69-1.254-.741-1.226-.79-1.195-.838-1.162-.883-1.127-.928-1.091-.97-1.053-1.014-1.013-1.053-.971-1.09-.928-1.127-.883-1.163-.837-1.194-.79-1.226-.741-1.255-.691-1.282-.64-1.306-.588-1.328-.534-1.349-.481-1.368-.426-1.383-.371-1.397-.315-1.409-.258-1.418-.201-1.424-.144-1.431-.087-1.432-.028-1.431.028-1.43.087-1.425.144-1.418.201-1.409.258-1.397.315-1.384.371-1.367.426-1.349.481-1.328.534-1.307.588-1.281.64-1.255.691-1.225.741-1.194.79-1.163.837-1.128.883-1.091.928-1.052.971-1.013 1.013-.971 1.053-.928 1.091-.883 1.127-.837 1.162-.79 1.195-.741 1.226-.69 1.254-.64 1.281-.589 1.306-.535 1.329-.479 1.349-.428 1.368-.37 1.383-.315 1.397-.257 1.409-.201 1.418-.144 1.425-.087 1.43-.03 1.431v-13.561l-.027-1.432-.087-1.429-.144-1.425-.201-1.419-.258-1.408-.316-1.397-.371-1.384-.425-1.367-.481-1.349-.535-1.329-.587-1.306-.64-1.281-.692-1.255-.741-1.226-.79-1.194-.837-1.162-.883-1.128-.927-1.091-.972-1.053-1.013-1.012-1.052-.971-1.091-.928-1.128-.884-1.161-.837-1.196-.79-1.226-.74-1.254-.691-1.281-.64-1.305-.588-1.33-.535-1.349-.481-1.368-.426-1.382-.37-1.398-.315-1.408-.258-1.419-.202-1.425-.144-1.43-.086-1.431-.029-1.432.029-1.429.086-1.425.144-1.419.202-1.408.258-1.398.315-1.382.37-1.368.426-1.349.481-1.329.535-1.306.588-1.281.64-1.254.691-1.226.74-1.195.79-1.162.837-1.127.884-1.091.928-1.053.971-1.013 1.012-.971 1.053-.928 1.091-.883 1.128-.837 1.162-.79 1.194-.741 1.226-.691 1.255-.64 1.281-.588 1.306-.534 1.329-.481 1.349-.426 1.367-.371 1.384-.315 1.397-.258 1.408-.201 1.419-.144 1.425-.087 1.429-.028 1.432v-110.19l-.029-1.426-.086-1.425-.144-1.42-.2-1.413-.257-1.403-.314-1.392-.369-1.379-.425-1.362-.479-1.344-.533-1.324-.585-1.302-.638-1.276-.689-1.25-.738-1.221-.787-1.191-.834-1.158-.88-1.123-.924-1.087-.968-1.049-1.009-1.009-1.049-.968-1.087-.924-1.123-.88-1.158-.835-1.191-.786-1.221-.739-1.25-.688-1.277-.638-1.301-.585-1.324-.533-1.344-.479-1.362-.425-1.379-.369-1.392-.314-1.404-.257-1.412-.2-1.42-.144-1.425-.086-1.426-.029-1.427.029-1.425.086-1.419.144-1.413.2-1.404.257-1.392.314-1.379.369-1.362.425-1.344.479-1.324.533-1.301.585-1.277.638-1.25.688-1.221.739-1.191.786-1.158.835-1.123.88-1.087.924-1.049.968-1.009 1.009-.967 1.049-.925 1.087-.88 1.123-.834 1.158-.787 1.191-.738 1.221-.689 1.25-.637 1.276-.586 1.302-.533 1.324-.479 1.344-.425 1.362-.369 1.379-.313 1.392-.258 1.403-.2 1.413-.144 1.42-.086 1.425-.029 1.426v211.35l-.832-1.804-.885-1.778-.938-1.752-.989-1.722-1.04-1.693-1.09-1.661-1.139-1.628-1.186-1.594-1.233-1.557-1.279-1.521-1.323-1.482-1.367-1.442-1.408-1.4-1.45-1.359-1.489-1.314-1.528-1.27-1.565-1.225-1.6-1.177-1.635-1.129-1.667-1.08-1.698-1.031-1.729-.979-1.756-.928-1.784-.875-1.808-.822-1.833-.768-1.854-.714-1.874-.658-1.893-.602-1.911-.545-1.925-.489-1.939-.432-1.952-.374-1.961-.315-1.97-.258-1.976-.199-1.982-.14-1.985-.081-1.987-.023-1.986.036-1.984.096-1.981.154-1.975.213-1.409.201-1.399.258-1.388.314-1.374.368-1.358.424-1.34.477-1.321.531-1.297.583-1.274.635-1.247.685-1.219.734-1.188.782-1.156.83-1.122.875-1.086.919-1.049.962-1.009 1.003-.968 1.042-.926 1.081-.881 1.116-.837 1.151-.789 1.184-.742 1.214-.693 1.243-.642 1.27-.591 1.294-.539 1.317-.485 1.337-.432 1.356-.377 1.372-.322 1.386-.266 1.397-.211 1.408-.153 1.414-.097 1.419-.04 1.423.016 1.422.074 1.421.13 1.417.188 1.411.243 1.401.299 1.391.355 1.378.409 1.363.464 1.345.517 1.326.569 1.303.622 1.28.672 1.254.721 1.227.77 1.196.818 1.165.863 1.131.908 1.095.951 1.058.992 1.02 1.033.979 1.071.937 1.107.893 1.143.848 1.175.802 1.206.754 1.236.706 1.263.655 1.288.604 1.311.553 1.333.499 1.507.563 1.485.618 1.461.674 1.435.728 1.407.78 1.377.833 1.344.884 1.311.933 1.275.981 1.237 1.028 1.199 1.074 1.157 1.118 1.115 1.16 1.07 1.201 1.025 1.24.978 1.278.93 1.313.88 1.347.829 1.378.777 1.409.724 1.437.67 1.463.615 1.487.559 1.509.502 1.528.444 1.546.387 1.562.328 1.575.269 1.587.21 1.595.15 1.602.09 1.606.03 1.609v14.07l.029 3.142.088 3.141.147 3.139.205 3.136.263 3.131.322 3.126.38 3.119.439 3.112.496 3.103.554 3.093.612 3.082.669 3.07.726 3.057.784 3.044.839 3.028.897 3.012.952 2.994 1.008 2.977 1.063 2.957 1.118 2.936 1.173 2.915 1.227 2.893 1.281 2.87 1.334 2.845 1.387 2.82 1.44 2.793 1.491 2.766 1.542 2.738 1.594 2.708 1.643 2.678 1.694 2.647 1.742 2.615 1.791 2.583 1.839 2.548 1.886 2.513 1.932 2.478 1.979 2.441 2.024 2.404 2.068 2.366 2.112 2.327 2.155 2.287 2.197 2.247 2.239 2.205 2.279 2.162 2.32 2.12 2.359 2.077 2.397 2.032 2.434 1.987 2.471 1.941 1.48 1.178 1.443 1.224 1.402 1.269 1.363 1.313 1.32 1.355 1.277 1.395 1.232 1.436 1.186 1.473 1.14 1.511 1.091 1.545 1.041 1.579.992 1.611.94 1.641.888 1.671.835 1.697.781 1.723.727 1.747.671 1.769.615 1.789.558 1.807.501 1.825.443 1.839.385 1.852.326 1.863.268 1.873.208 1.88.149 1.886.089 1.89.03 1.891v35.852z"
    style="fill:url(#a)" transform="translate(24.734 30.745)" />
  <path
    d="m438.99 554.9 1.667-2.403 1.617-2.436 1.566-2.469 1.516-2.501 1.463-2.532 1.412-2.561 1.358-2.589 1.305-2.617 1.251-2.644 1.196-2.668 1.142-2.692 1.084-2.716 1.031-2.737.972-2.757.917-2.777.858-2.795.802-2.813.742-2.828.686-2.843.625-2.856.569-2.869.508-2.879.449-2.89.39-2.898.33-2.905.269-2.912.21-2.917.15-2.92.091-2.923.03-2.924m-283.98-320.89v254.65m70.867-254.65v220.86m213.11-66.809v166.84m-70.867-197.14v97.109m-71.124-110.67v110.67m-190.08 74.715v-14.07m89.002 195.01v35.852m193.5-35.852v35.852m-163.54-512.37-.029-1.426-.086-1.425-.144-1.42-.2-1.413-.257-1.403-.314-1.392-.369-1.379-.425-1.362-.479-1.344-.533-1.324-.585-1.302-.638-1.276-.689-1.25-.738-1.221-.787-1.191-.834-1.158-.88-1.123-.924-1.087-.968-1.049-1.009-1.009-1.049-.968-1.087-.924-1.123-.88-1.158-.835-1.191-.786-1.221-.739-1.25-.688-1.277-.638-1.301-.585-1.324-.533-1.344-.479-1.362-.425-1.379-.369-1.392-.314-1.404-.257-1.412-.2-1.42-.144-1.425-.086-1.426-.029-1.427.029-1.425.086-1.419.144-1.413.2-1.404.257-1.392.314-1.379.369-1.362.425-1.344.479-1.324.533-1.301.585-1.277.638-1.25.688-1.221.739-1.191.786-1.158.835-1.123.88-1.087.924-1.049.968-1.009 1.009-.967 1.049-.925 1.087-.88 1.123-.834 1.158-.787 1.191-.738 1.221-.689 1.25-.637 1.276-.586 1.302-.533 1.324-.479 1.344-.425 1.362-.369 1.379-.313 1.392-.258 1.403-.2 1.413-.144 1.42-.086 1.425-.029 1.426m17.532 428.98-2.471-1.941-2.434-1.987-2.397-2.032-2.359-2.077-2.32-2.12-2.279-2.162-2.239-2.205-2.197-2.247-2.155-2.287-2.112-2.327-2.068-2.366-2.024-2.404-1.979-2.441-1.932-2.478-1.886-2.513-1.839-2.548-1.791-2.583-1.742-2.615-1.694-2.647-1.643-2.678-1.594-2.708-1.542-2.738-1.491-2.766-1.44-2.793-1.387-2.82-1.334-2.845-1.281-2.87-1.227-2.893-1.173-2.915-1.118-2.936-1.063-2.957-1.008-2.977-.952-2.994-.897-3.012-.839-3.028-.784-3.044-.726-3.057-.669-3.07-.612-3.082-.554-3.093-.496-3.103-.439-3.112-.38-3.119-.322-3.126-.263-3.131-.205-3.136-.147-3.139-.088-3.141-.029-3.142m-21.297-123.56-1.409.201-1.399.258-1.388.314-1.374.368-1.358.424-1.34.477-1.321.531-1.297.583-1.274.635-1.247.685-1.219.734-1.188.782-1.156.83-1.122.875-1.086.919-1.049.962-1.009 1.003-.968 1.042-.926 1.081-.881 1.116-.837 1.151-.789 1.184-.742 1.214-.693 1.243-.642 1.27-.591 1.294-.539 1.317-.485 1.337-.432 1.356-.377 1.372-.322 1.386-.266 1.397-.211 1.408-.153 1.414-.097 1.419-.04 1.423.016 1.422.074 1.421.13 1.417.188 1.411.243 1.401.299 1.391.355 1.378.409 1.363.464 1.345.517 1.326.569 1.303.622 1.28.672 1.254.721 1.227.77 1.196.818 1.165.863 1.131.908 1.095.951 1.058.992 1.02 1.033.979 1.071.937 1.107.893 1.143.848 1.175.802 1.206.754 1.236.706 1.263.655 1.288.604 1.311.553 1.333.499m218.86-130.67-.027-1.432-.087-1.429-.144-1.425-.201-1.419-.258-1.408-.316-1.397-.371-1.384-.425-1.367-.481-1.349-.535-1.329-.587-1.306-.64-1.281-.692-1.255-.741-1.226-.79-1.194-.837-1.162-.883-1.128-.927-1.091-.972-1.053-1.013-1.012-1.052-.971-1.091-.928-1.128-.884-1.161-.837-1.196-.79-1.226-.74-1.254-.691-1.281-.64-1.305-.588-1.33-.535-1.349-.481-1.368-.426-1.382-.37-1.398-.315-1.408-.258-1.419-.202-1.425-.144-1.43-.086-1.431-.029-1.432.029-1.429.086-1.425.144-1.419.202-1.408.258-1.398.315-1.382.37-1.368.426-1.349.481-1.329.535-1.306.588-1.281.64-1.254.691-1.226.74-1.195.79-1.162.837-1.127.884-1.091.928-1.053.971-1.013 1.012-.971 1.053-.928 1.091-.883 1.128-.837 1.162-.79 1.194-.741 1.226-.691 1.255-.64 1.281-.588 1.306-.534 1.329-.481 1.349-.426 1.367-.371 1.384-.315 1.397-.258 1.408-.201 1.419-.144 1.425-.087 1.429-.028 1.432m71.122 13.561.03-1.431.087-1.43.144-1.425.201-1.418.257-1.409.315-1.397.37-1.383.428-1.368.479-1.349.535-1.329.589-1.306.64-1.281.69-1.254.741-1.226.79-1.195.837-1.162.883-1.127.928-1.091.971-1.053 1.013-1.013 1.052-.971 1.091-.928 1.128-.883 1.163-.837 1.194-.79 1.225-.741 1.255-.691 1.281-.64 1.307-.588 1.328-.534 1.349-.481 1.367-.426 1.384-.371 1.397-.315 1.409-.258 1.418-.201 1.425-.144 1.43-.087 1.431-.028 1.432.028 1.431.087 1.424.144 1.418.201 1.409.258 1.397.315 1.383.371 1.368.426 1.349.481 1.328.534 1.306.588 1.282.64 1.255.691 1.226.741 1.194.79 1.163.837 1.127.883 1.09.928 1.053.971 1.014 1.013.97 1.053.928 1.091.883 1.127.838 1.162.79 1.195.741 1.226.69 1.254.64 1.281.589 1.306.533 1.329.481 1.349.426 1.368.371 1.383.315 1.397.258 1.409.201 1.418.144 1.425.087 1.43.028 1.431m-261.2 157.75-.03-1.609-.09-1.606-.15-1.602-.21-1.595-.269-1.587-.328-1.575-.387-1.562-.444-1.546-.502-1.528-.559-1.509-.615-1.487-.67-1.463-.724-1.437-.777-1.409-.829-1.378-.88-1.347-.93-1.313-.978-1.278-1.025-1.24-1.07-1.201-1.115-1.16-1.157-1.118-1.199-1.074-1.237-1.028-1.275-.981-1.311-.933-1.344-.884-1.377-.833-1.407-.78-1.435-.728-1.461-.674-1.485-.618-1.507-.563m7.48-68.839 1.975-.213 1.981-.154 1.984-.096 1.986-.036 1.987.023 1.985.081 1.982.14 1.976.199 1.97.258 1.961.315 1.952.374 1.939.432 1.925.489 1.911.545 1.893.602 1.874.658 1.854.714 1.833.768 1.808.822 1.784.875 1.756.928 1.729.979 1.698 1.031 1.667 1.08 1.635 1.129 1.6 1.177 1.565 1.225 1.528 1.27 1.489 1.314 1.45 1.359 1.408 1.4 1.367 1.442 1.323 1.482 1.279 1.521 1.233 1.557 1.186 1.594 1.139 1.628 1.09 1.661 1.04 1.693.989 1.722.938 1.752.885 1.778.832 1.804m40.913 265.17-.03-1.891-.089-1.89-.149-1.886-.208-1.88-.268-1.873-.326-1.863-.385-1.852-.443-1.839-.501-1.825-.558-1.807-.615-1.789-.671-1.769-.727-1.747-.781-1.723-.835-1.697-.888-1.671-.94-1.641-.992-1.611-1.041-1.579-1.091-1.545-1.14-1.511-1.186-1.473-1.232-1.436-1.277-1.395-1.32-1.355-1.363-1.313-1.402-1.269-1.443-1.224-1.48-1.178m216.88 47.532.028-2.697.086-2.695.143-2.694.2-2.689.259-2.685.314-2.679.372-2.671.428-2.663.485-2.653.542-2.642.597-2.63.652-2.617.708-2.602.764-2.587.819-2.57.873-2.552.927-2.532.981-2.513 1.033-2.491 1.087-2.468 1.139-2.445 1.192-2.42 1.241-2.394 1.292-2.367 1.342-2.339 1.392-2.31 1.442-2.28 1.489-2.249 1.535-2.217m-257.77-148.51-.029 2.418-.087 2.417-.145 2.414-.203 2.411-.26 2.404-.319 2.398-.376 2.389-.433 2.379-.49 2.369-.547 2.356-.603 2.342-.659 2.327-.715 2.311-.77 2.292-.825 2.274-.88 2.253-.893 2.286-.839 2.305-.786 2.325-.731 2.342-.677 2.359-.621 2.374-.566 2.388-.51 2.4-.455 2.411-.398 2.422-.341 2.43-.285 2.437-.228 2.443m227.78-169.27.029-1.427.087-1.424.144-1.42.199-1.413.257-1.403.315-1.392.368-1.379.426-1.362.479-1.345.532-1.323.586-1.302.637-1.276.688-1.25.74-1.222.785-1.19.835-1.158.88-1.123.924-1.087.968-1.049 1.01-1.009 1.048-.968 1.088-.924 1.123-.88 1.158-.835 1.19-.786 1.222-.739 1.249-.688 1.276-.638 1.302-.585 1.325-.533 1.343-.479 1.362-.425 1.379-.369 1.392-.314 1.405-.257 1.412-.2 1.419-.144 1.425-.086 1.426-.029 1.427.029 1.425.086 1.419.144 1.414.2 1.404.257 1.391.314 1.379.369 1.362.425 1.344.479 1.324.533 1.302.585 1.277.638 1.25.688 1.22.739 1.191.786 1.157.835 1.124.88 1.087.924 1.05.968 1.008 1.009.968 1.049.925 1.087.879 1.123.834 1.158.788 1.19.737 1.222.689 1.25.637 1.276.586 1.302.534 1.323.478 1.345.424 1.362.371 1.379.313 1.392.257 1.403.2 1.413.144 1.42.086 1.424.029 1.427"
    style="stroke-linejoin:round;stroke:#000;stroke-linecap:round;stroke-width:9;fill:none"
    transform="translate(24.734 30.745)" />
</svg>